<svg xmlns="http://www.w3.org/2000/svg" xmlns:xlink="http://www.w3.org/1999/xlink" width="500" zoomAndPan="magnify" viewBox="0 0 375 374.999991" height="500" preserveAspectRatio="xMidYMid meet" version="1.2"><defs/><g id="53574a3d26"><g style="fill:#222222;fill-opacity:1;"><g transform="translate(13.505863, 308.436956)"><path style="stroke:none" d="M 89.4375 -170.328125 C 109.414062 -170.328125 124.242188 -165.835938 133.921875 -156.859375 C 143.609375 -147.890625 148.453125 -133.570312 148.453125 -113.90625 L 148.453125 0 L 129.953125 0 L 125.0625 -24.765625 L 123.84375 -24.765625 C 119.15625 -18.648438 114.257812 -13.523438 109.15625 -9.390625 C 104.0625 -5.265625 98.175781 -2.15625 91.5 -0.0625 C 84.820312 2.019531 76.644531 3.0625 66.96875 3.0625 C 56.769531 3.0625 47.722656 1.28125 39.828125 -2.28125 C 31.929688 -5.851562 25.710938 -11.257812 21.171875 -18.5 C 16.640625 -25.738281 14.375 -34.910156 14.375 -46.015625 C 14.375 -62.734375 21 -75.578125 34.25 -84.546875 C 47.5 -93.515625 67.679688 -98.410156 94.796875 -99.234375 L 123.6875 -100.453125 L 123.6875 -110.6875 C 123.6875 -125.164062 120.578125 -135.304688 114.359375 -141.109375 C 108.140625 -146.921875 99.375 -149.828125 88.0625 -149.828125 C 79.300781 -149.828125 70.941406 -148.550781 62.984375 -146 C 55.035156 -143.457031 47.492188 -140.457031 40.359375 -137 L 32.5625 -156.25 C 40.101562 -160.125 48.765625 -163.4375 58.546875 -166.1875 C 68.335938 -168.945312 78.632812 -170.328125 89.4375 -170.328125 Z M 123.390625 -82.5625 L 97.859375 -81.484375 C 76.960938 -80.671875 62.234375 -77.257812 53.671875 -71.25 C 45.109375 -65.238281 40.828125 -56.726562 40.828125 -45.71875 C 40.828125 -36.132812 43.726562 -29.046875 49.53125 -24.453125 C 55.34375 -19.867188 63.039062 -17.578125 72.625 -17.578125 C 87.507812 -17.578125 99.691406 -21.703125 109.171875 -29.953125 C 118.648438 -38.210938 123.390625 -50.601562 123.390625 -67.125 Z M 123.390625 -82.5625 "/></g><g transform="translate(187.49816, 308.436956)"><path style="stroke:none" d="M 89.4375 -170.328125 C 109.414062 -170.328125 124.242188 -165.835938 133.921875 -156.859375 C 143.609375 -147.890625 148.453125 -133.570312 148.453125 -113.90625 L 148.453125 0 L 129.953125 0 L 125.0625 -24.765625 L 123.84375 -24.765625 C 119.15625 -18.648438 114.257812 -13.523438 109.15625 -9.390625 C 104.0625 -5.265625 98.175781 -2.15625 91.5 -0.0625 C 84.820312 2.019531 76.644531 3.0625 66.96875 3.0625 C 56.769531 3.0625 47.722656 1.28125 39.828125 -2.28125 C 31.929688 -5.851562 25.710938 -11.257812 21.171875 -18.5 C 16.640625 -25.738281 14.375 -34.910156 14.375 -46.015625 C 14.375 -62.734375 21 -75.578125 34.25 -84.546875 C 47.5 -93.515625 67.679688 -98.410156 94.796875 -99.234375 L 123.6875 -100.453125 L 123.6875 -110.6875 C 123.6875 -125.164062 120.578125 -135.304688 114.359375 -141.109375 C 108.140625 -146.921875 99.375 -149.828125 88.0625 -149.828125 C 79.300781 -149.828125 70.941406 -148.550781 62.984375 -146 C 55.035156 -143.457031 47.492188 -140.457031 40.359375 -137 L 32.5625 -156.25 C 40.101562 -160.125 48.765625 -163.4375 58.546875 -166.1875 C 68.335938 -168.945312 78.632812 -170.328125 89.4375 -170.328125 Z M 123.390625 -82.5625 L 97.859375 -81.484375 C 76.960938 -80.671875 62.234375 -77.257812 53.671875 -71.25 C 45.109375 -65.238281 40.828125 -56.726562 40.828125 -45.71875 C 40.828125 -36.132812 43.726562 -29.046875 49.53125 -24.453125 C 55.34375 -19.867188 63.039062 -17.578125 72.625 -17.578125 C 87.507812 -17.578125 99.691406 -21.703125 109.171875 -29.953125 C 118.648438 -38.210938 123.390625 -50.601562 123.390625 -67.125 Z M 123.390625 -82.5625 "/></g></g></g></svg>